<?xml version="1.0" standalone="no"?><!DOCTYPE svg PUBLIC "-//W3C//DTD SVG 1.1//EN" "http://www.w3.org/Graphics/SVG/1.1/DTD/svg11.dtd">
<svg t="1621336297383" class="icon" viewBox="0 0 1024 1024" version="1.1" xmlns="http://www.w3.org/2000/svg" p-id="1344" xmlns:xlink="http://www.w3.org/1999/xlink" width="200" height="200"><defs><style type="text/css"></style></defs><path d="M640 170.65984l170.65984 0q53.00224 0 90.50112 37.49888t37.49888 90.50112l0 597.34016q0 53.00224-37.49888 90.50112t-90.50112 37.49888l-597.34016 0q-53.00224 0-90.50112-37.49888t-37.49888-90.50112l0-597.34016q0-53.00224 37.49888-90.50112t90.50112-37.49888l170.65984 0 0 85.34016-170.65984 0q-17.67424 0-30.16704 12.4928t-12.4928 30.16704l0 597.34016q0 17.67424 12.4928 30.16704t30.16704 12.4928l597.34016 0q17.67424 0 30.16704-12.4928t12.4928-30.16704l0-597.34016q0-17.67424-12.4928-30.16704t-30.16704-12.4928l-170.65984 0 0-85.34016zM512 0q17.67424 0 30.16704 12.4928t12.4928 30.16704l0 537.00608 97.66912-97.9968q12.32896-12.32896 30.33088-12.32896 18.3296 0 30.49472 12.16512t12.16512 30.49472q0 18.00192-12.32896 30.33088l-170.65984 170.65984q-12.32896 12.32896-30.33088 12.32896t-30.33088-12.32896l-170.65984-170.65984q-12.32896-13.0048-12.32896-30.33088 0-17.67424 12.4928-30.16704t30.16704-12.4928q18.00192 0 30.33088 12.32896l97.66912 97.9968 0-537.00608q0-17.67424 12.4928-30.16704t30.16704-12.4928z" p-id="1345"></path></svg>