<svg class="svg-icon" style="width: 1em; height: 1em;vertical-align: middle;fill: currentColor;overflow: hidden;" viewBox="0 0 1024 1024" version="1.1" xmlns="http://www.w3.org/2000/svg"><path d="M648 672q0 16.5-11.75 28.25t-28.25 11.75-28.25-11.75-11.75-28.25 11.75-28.25 28.25-11.75 28.25 11.75 11.75 28.25zm128 0q0 16.5-11.75 28.25t-28.25 11.75-28.25-11.75-11.75-28.25 11.75-28.25 28.25-11.75 28.25 11.75 11.75 28.25zm56 80l0-160q0-6.5-4.75-11.25t-11.25-4.75l-608 0q-6.5 0-11.25 4.75t-4.75 11.25l0 160q0 6.5 4.75 11.25t11.25 4.75l608 0q6.5 0 11.25-4.75t4.75-11.25zm-615-240l590 0-78.5-241q-2-6.5-8-10.75t-13-4.25l-391 0q-7 0-13 4.25t-8 10.75zm679 80l0 160q0 33-23.5 56.5t-56.5 23.5l-608 0q-33 0-56.5-23.5t-23.5-56.5l0-160q0-12.5 8-37.5l98.5-303q8.5-26.5 31.5-43t50.5-16.5l391 0q27.5 0 50.5 16.5t31.5 43l98.5 303q8 25 8 37.5z"  /></svg>