<svg xmlns="http://www.w3.org/2000/svg" xmlns:xlink="http://www.w3.org/1999/xlink" viewBox="0 0 100 125" version="1.1" x="0px" y="0px"><title>i22</title><desc>Created with Sketch.</desc><g stroke="none" stroke-width="1" fill="none" fill-rule="evenodd"><path d="M78.129,49.644 C78.129,53.539 74.972,56.696 71.077,56.696 C67.182,56.696 64.025,53.539 64.025,49.644 C64.025,45.749 67.182,42.592 71.077,42.592 C74.972,42.592 78.129,45.749 78.129,49.644 M57.052,49.644 C57.052,53.539 53.895,56.696 50,56.696 C46.105,56.696 42.948,53.539 42.948,49.644 C42.948,45.749 46.105,42.592 50,42.592 C53.895,42.592 57.052,45.749 57.052,49.644 M35.975,49.644 C35.975,53.539 32.817,56.696 28.923,56.696 C25.028,56.696 21.87,53.539 21.87,49.644 C21.87,45.749 25.028,42.592 28.923,42.592 C32.817,42.592 35.975,45.749 35.975,49.644 M50,87 C29.598,87 13,70.402 13,50 C13,29.598 29.598,13 50,13 C70.402,13 87,29.598 87,50 C87,70.402 70.402,87 50,87 M50,5 C25.147,5 5,25.147 5,50 C5,74.852 25.147,95 50,95 C74.853,95 95,74.852 95,50 C95,25.147 74.853,5 50,5" fill="#000000"/></g><text x="0" y="115" fill="#000000" font-size="5px" font-weight="bold" font-family="'Helvetica Neue', Helvetica, Arial-Unicode, Arial, Sans-serif">Created by Icon Island</text><text x="0" y="120" fill="#000000" font-size="5px" font-weight="bold" font-family="'Helvetica Neue', Helvetica, Arial-Unicode, Arial, Sans-serif">from the Noun Project</text></svg>