<?xml version="1.0" standalone="no"?><!DOCTYPE svg PUBLIC "-//W3C//DTD SVG 1.1//EN" "http://www.w3.org/Graphics/SVG/1.1/DTD/svg11.dtd"><svg t="1621298439876" class="icon" viewBox="0 0 1024 1024" version="1.1" xmlns="http://www.w3.org/2000/svg" p-id="2265" xmlns:xlink="http://www.w3.org/1999/xlink" width="200" height="200"><defs><style type="text/css"></style></defs><path d="M488 74.016Q498.016 64 512 64t24 10.016l156 156q10.016 10.016 10.016 24.512t-10.016 24.512-24 10.016-24.992-10.016l-96-96.992v578.016q0 14.016-10.496 24t-24.512 10.016-24.512-10.016-10.496-24V182.048L380 279.04q-10.016 10.016-24 10.016t-24-10.016-10.016-24.512 10.016-24.512zM924.512 640q-14.496 0-24.512 10.496t-10.016 24.512v195.008q0 8.992-6.016 15.008t-15.008 6.016H152.96q-8.992 0-15.008-6.016t-6.016-15.008v-195.008q0-14.016-10.016-24.512T97.408 640t-24.512 10.496-10.016 24.512v223.008q0 26.016 18.016 44t44 18.016h772q26.016 0 44-18.496t18.016-43.488v-223.008q0-14.016-10.016-24.512t-24.512-10.496z" p-id="2266"></path></svg>